PathFileType	4	(X/Y/Z)	C:\Users\WrightLab\Desktop\Jo\P5V33.trc
DataRate	CameraRate	NumFrames	NumMarkers	Units	OrigDataRate	OrigDataStartFrame	OrigNumFrames
100.00	100.00	      6	19	mm	100.00	400	      1066
Frame#	Time	Headset_Front			Headset_Back			Headset_Left			Headset_Right			Left_Shoulder			Right_Shoulder			Sternum			C7			Left Elbow			Right Elbow			Left Wrist			Right Wrist			Left ASIS			Right ASIS			S2			Left Knee			Right Knee			Left Ankle			Right Ankle			
		X1	Y1	Z1	X2	Y2	Z2	X3	Y3	Z3	X4	Y4	Z4	X5	Y5	Z5	X6	Y6	Z6	X7	Y7	Z7	X8	Y8	Z8	X9	Y9	Z9	X10	Y10	Z10	X11	Y11	Z11	X12	Y12	Z12	X13	Y13	Z13	X14	Y14	Z14	X15	Y15	Z15	X16	Y16	Z16	X17	Y17	Z17	X18	Y18	Z18	X19	Y19	Z19	

400	3.990	-199.67929	1624.43750	-429.63699				-425.27579	1558.52319	-434.55865				-72.73345	1511.14722	-616.93304	-460.61905	1443.15149	-542.14087	-259.11362	1310.21204	-502.54706	-307.22171	1508.50854	-704.71930	-74.39880	1279.72729	-480.55270	-561.01019	1213.68628	-445.36099	22.69452	1232.95679	-654.85834	-521.84747	1192.99390	-206.48831	-85.14184	932.78442	-492.59647	-377.10312	933.02362	-466.34445	-249.46985	960.27393	-772.57080	-95.03215	489.14182	-467.34647	-433.65033	491.14703	-525.08661	-67.40562	201.98347	-806.65753	-357.66730	82.12971	-574.22748	
401	4.000	-200.80859	1624.67041	-424.74963	-332.74890	1479.17834	-334.53989	-426.38235	1558.46667	-430.34018				-73.97028	1511.71912	-612.25427	-461.49585	1442.85620	-537.36273	-260.66895	1311.05481	-498.51291	-308.40921	1509.33289	-700.35547	-75.83127	1280.14624	-476.39597	-563.23859	1215.08252	-441.25912	21.59872	1233.64514	-650.08411	-523.16858	1192.62366	-201.81877	-85.58311	933.39117	-489.09830	-377.24136	933.44763	-462.11841	-250.07274	960.33466	-766.80341	-93.09396	491.95728	-459.36456	-435.20367	491.53067	-521.68738	-68.47128	202.80724	-793.65216	-357.66730	82.12971	-574.22748	
402	4.010	-201.73421	1624.05676	-419.33289				-427.31464	1558.31641	-424.94864				-74.82381	1512.38904	-607.34766	-462.25748	1443.36230	-533.02026	-260.67352	1311.27136	-492.62488	-309.75122	1509.91675	-695.59167	-76.84497	1280.55835	-470.98663	-564.02283	1214.87695	-436.59094	21.27054	1234.69531	-646.22388	-524.16351	1191.83582	-197.79485	-86.15871	934.00189	-485.02997	-377.98917	933.72388	-458.97958	-250.49045	961.24628	-764.84161	-91.22681	494.92709	-451.80023	-435.51193	490.98709	-516.58093	-70.56475	203.24289	-780.69220	-357.51517	82.57849	-573.45483	
403	4.020	-202.62854	1624.07605	-414.27866	-335.13269	1477.84509	-325.08786	-428.35080	1557.97205	-420.07220				-76.36457	1513.22729	-602.15326	-464.03101	1444.19336	-528.34338	-261.07898	1311.62122	-488.34833	-310.93091	1510.53833	-690.39209	-77.51151	1280.70923	-467.72525	-563.65723	1213.55750	-432.64905	19.87220	1235.00122	-643.04706	-525.95013	1191.58411	-193.47307	-86.10615	934.81085	-481.07642	-378.37766	933.88446	-455.37546	-250.84657	962.53174	-761.26306	-89.95607	497.00711	-444.86896	-434.94455	490.72626	-511.64297	-71.66730	202.41338	-768.02271	-357.50510	82.76028	-572.99768	
404	4.030	-203.69466	1624.47095	-409.91702				-429.24548	1557.74951	-414.63242				-77.51675	1513.88989	-598.68884	-464.25870	1443.96631	-522.59479	-262.10007	1312.06567	-484.17023	-311.82547	1511.08594	-685.90222	-77.82902	1281.17261	-463.77957	-565.75592	1214.94897	-427.95486	19.21371	1235.56262	-639.45490	-526.72278	1191.19678	-188.84975	-87.57106	935.63660	-477.09189	-378.92090	934.34857	-451.92130	-251.11330	962.60376	-757.14514	-89.09790	498.40900	-438.43600	-434.89838	490.95959	-508.39615	-73.81744	201.23528	-752.33942	-357.88815	83.40316	-573.20471	
405	4.040	-204.51025	1624.34082	-405.12549	-335.63235	1477.62952	-315.86282	-430.10629	1557.73486	-410.19034				-78.36281	1514.53784	-593.92371	-466.41718	1444.45251	-519.28906	-263.70609	1312.04163	-480.50058	-312.62820	1511.81970	-681.17249	-79.08658	1281.90894	-458.95526	-566.68231	1215.04163	-424.44312	18.68469	1237.39832	-636.71594	-527.98358	1190.92395	-184.89241	-87.79735	936.64752	-472.44122	-379.51868	934.53387	-447.45807	-251.84145	963.43103	-753.53809	-88.29668	499.79230	-432.51331	-433.67648	490.37057	-503.80020	-72.62943	200.07306	-738.75806	-357.65826	84.52063	-572.64490	
